<svg xmlns="http://www.w3.org/2000/svg" xmlns:xlink="http://www.w3.org/1999/xlink" width="500" height="200"><defs><g id="dot"><rect width="6" height="6" x="-3" y="-3" fill="#fff"/><rect width="4" height="4" x="-2" y="-2" fill="#000"/></g></defs><g><path style="fill:none;stroke:#444;stroke-width:40" d="m 286.4,79.3 c -14.2,24.8 -30.4,48.4 -47.4,71.11508 -6.0,7.8 -12.2,15.5 -18.6,23.0 M 89.8,116.8 c 67.0,1.9 134.1,-7.7 195.1,-36.9 0.47,-0.2 0.9,-0.4 1.4,-0.7"/><path d="m 286.4,79.3 c -14.2,24.8 -30.4,48.4 -47.4,71.11508 -6.0,7.8 -12.2,15.5 -18.6,23.0 M 89.8,116.8 c 67.0,1.9 134.1,-7.7 195.1,-36.9 0.47,-0.2 0.9,-0.4 1.4,-0.7" style="fill:none;stroke:#ccc;stroke-width:2"/></g><path style="fill:#ff1493" d="m 277.5,61.6 8.5,17.5 17.7,10.2 c 7.8,-11.7 24.7,-49.2 29.9,-61.9 -19.8,14.2 -37.5,25.5 -56.1,34.2 z"/><g style="fill:none;stroke:#000;stroke-dasharray:3,3"><path d="m 565,39 a 360,360 0 1 1 -720,0 360,360 0 1 1 720,0 z" transform="translate(-73.9,-284.8)"/><path d="M 705,39 A 500,500 0 1 1 -295,39 500,500 0 1 1 705,39 z" transform="translate(-355.4,-203.7)"/></g><g style="fill:none;stroke:#6a9100"><path d="M 725,39 A 520,520 0 1 1 -315,39 520,520 0 1 1 725,39 z" transform="translate(-355.4,-203.7)"/><path d="m 545,39 a 340,340 0 1 1 -680,0 340,340 0 1 1 680,0 z" transform="translate(-73.9,-284.8)"/></g><use x="286" y="79" xlink:href="#dot"/><use x="304" y="89" xlink:href="#dot"/><use x="278" y="62" xlink:href="#dot"/><use x="334" y="27" xlink:href="#dot"/><g style="font-size:12px;font-family:sans-serif"><text style="text-anchor:middle;fill:#ccc" x="289" y="94">P</text><text style="text-anchor:end;fill:#444" x="272" y="61">P1</text><text style="fill:#444" x="304" y="103">P2</text><text style="text-anchor:middle;fill:#444" x="323" y="26">P4</text><text style="text-anchor:end" x="85" y="77">A<tspan style="font-size:10px" dy="2">outside</tspan></text><text style="text-anchor:end" x="295" y="186">B<tspan style="font-size:10px" dy="2">outside</tspan></text></g></svg>