<svg xmlns="http://www.w3.org/2000/svg" xmlns:xlink="http://www.w3.org/1999/xlink" width="600" height="300" version="1.1" viewBox="0 0 600 300"><desc>line box description.</desc><style>text{font-size:60px;text-anchor:middle}</style><defs><path id="MyPath1" d="m -100,-25 c 25,25 75,25 100,25 25,0 75,0 100,25"/><path id="MyPath2" d="m 25,-100 c -25,25 -25,75 -25,100 0,25 0,75 -25,100"/><marker id="MyArrow" orient="auto" style="overflow:visible"><path d="m -5,-5 10,5 -10,5 3,-5 z" style="fill:#000"/></marker><marker id="MyArrowB" orient="auto" style="overflow:visible"><path d="m -5,-5 10,5 -10,5 3,-5 z" style="fill:#add8e6"/></marker></defs><g transform="translate(150,150) rotate(-15)"><use xlink:href="#MyPath1" style="fill:none;stroke:#add8e6;marker-end:url(#MyArrowB)"/><text><textPath startOffset="50%" xlink:href="#MyPath1">A</textPath></text><rect width="40" height="60" x="-20" y="-50" style="fill:none;stroke:red"/><path d="m 0,0 0,-75" style="fill:none;stroke:#000;marker-end:url(#MyArrow)"/><circle r="3" style="fill:red"/></g><g transform="translate(450,150) rotate(-15)"><use xlink:href="#MyPath2" style="fill:none;stroke:#add8e6;marker-end:url(#MyArrowB)"/><text style="writing-mode:vertical-rl"><textPath startOffset="50%" xlink:href="#MyPath2">字</textPath></text><rect width="60" height="60" x="-30" y="-30" style="fill:none;stroke:red"/><path d="m 0,0 0,-75" style="fill:none;stroke:#000;marker-end:url(#MyArrow)"/><circle r="3" style="fill:red"/></g></svg>