<svg xmlns="http://www.w3.org/2000/svg" width="600" height="150" version="1.1" viewBox="0 0 600 150"><desc>line box description.</desc><g style="fill:none;stroke:#add8e6"><rect width="49" height="72" x="78" y="45"/><rect width="23" height="72" x="127" y="45"/><rect width="61" height="96" x="150" y="27"/><rect width="32" height="96" x="211" y="27"/><rect width="61" height="96" x="238" y="27"/><rect width="23" height="72" x="299" y="45"/><rect width="59" height="72" x="322" y="45"/><rect width="44" height="72" x="381" y="45"/><rect width="28" height="72" x="425" y="45"/><rect width="46" height="72" x="453" y="45"/><rect width="23" height="72" x="499" y="45"/></g><g style="fill:none;stroke:red"><rect width="72" height="90" x="78" y="36"/><rect width="149" height="120" x="150" y="15"/><rect width="223" height="90" x="299" y="36"/></g><g style="fill:none;stroke:#add8e6"><rect width="444" height="120" x="78" y="15"/></g><path d="m 506.54,91.07 h 7.42 v 8.93 h -7.42 z m -20.7,-24.468 v -21.305 h 6.46 v 54.703 h -6.46 v -5.906 q -2.04,3.515 -5.17,5.238 -3.1,1.688 -7.46,1.688 -7.13,0 -11.63,-5.696 -4.47,-5.695 -4.47,-14.976 0,-9.282 4.47,-14.977 4.5,-5.695 11.63,-5.695 4.36,0 7.46,1.722 3.13,1.688 5.17,5.204 z m -22.05,13.746 q 0,7.136 2.92,11.215 2.95,4.042 8.09,4.042 5.13,0 8.08,-4.042 2.96,-4.079 2.96,-11.215 0,-7.137 -2.96,-11.18 -2.95,-4.078 -8.08,-4.078 -5.14,0 -8.09,4.078 -2.92,4.043 -2.92,11.18 z m -9.45,-13.676 q -1.09,-0.633 -2.39,-0.914 -1.27,-0.317 -2.82,-0.317 -5.48,0 -8.43,3.586 -2.92,3.551 -2.92,10.231 v 20.742 h -6.51 v -39.375 h 6.51 v 6.117 q 2.04,-3.586 5.31,-5.308 3.27,-1.758 7.94,-1.758 0.67,0 1.48,0.105 0.81,0.07 1.79,0.246 z m -51.58,-1.512 q -5.2,0 -8.22,4.078 -3.03,4.043 -3.03,11.11 0,7.066 2.99,11.144 3.02,4.043 8.26,4.043 5.17,0 8.19,-4.078 3.03,-4.078 3.03,-11.109 0,-6.996 -3.03,-11.075 -3.02,-4.113 -8.19,-4.113 z m 0,-5.484 q 8.44,0 13.26,5.484 4.81,5.485 4.81,15.188 0,9.668 -4.81,15.187 -4.82,5.485 -13.26,5.485 -8.47,0 -13.29,-5.485 -4.78,-5.519 -4.78,-15.187 0,-9.703 4.78,-15.188 4.82,-5.484 13.29,-5.484 z m -77.94,0.949 h 6.47 l 8.08,30.727 8.06,-30.727 h 7.62 l 8.09,30.727 8.05,-30.727 h 6.47 l -10.3,39.375 h -7.63 l -8.47,-32.273 -8.51,32.273 h -7.63 z m -43.29,12.516 q 0,-9.375 -3.89,-14.532 -3.84,-5.156 -10.83,-5.156 -6.94,0 -10.83,5.156 -3.84,5.157 -3.84,14.532 0,9.328 3.84,14.484 3.89,5.156 10.83,5.156 6.99,0 10.83,-5.156 3.89,-5.156 3.89,-14.484 z m 8.63,20.343 q 0,13.406 -5.96,19.926 -5.95,6.56 -18.23,6.56 -4.55,0 -8.58,-0.7 -4.03,-0.66 -7.83,-2.07 v -8.39 q 3.8,2.06 7.5,3.05 3.71,0.98 7.55,0.98 8.48,0 12.7,-4.45 4.22,-4.41 4.22,-13.359 v -4.265 q -2.67,4.64 -6.84,6.937 -4.17,2.297 -9.99,2.297 -9.65,0 -15.56,-7.359 -5.91,-7.36 -5.91,-19.5 0,-12.188 5.91,-19.547 5.91,-7.36 15.56,-7.36 5.82,0 9.99,2.297 4.17,2.297 6.84,6.938 v -7.969 h 8.63 z m -69.8,-45.984 h 8.62 v 52.5 h -8.62 z m 0,-20.438 h 8.62 v 10.922 h -8.62 z m -23.25,46.735 q 0,-9.516 -3.94,-14.906 -3.89,-5.438 -10.73,-5.438 -6.85,0 -10.78,5.438 -3.89,5.39 -3.89,14.906 0,9.516 3.89,14.953 3.93,5.391 10.78,5.391 6.84,0 10.73,-5.391 3.94,-5.437 3.94,-14.953 z m -29.34,-18.328 q 2.71,-4.688 6.84,-6.938 4.17,-2.297 9.94,-2.297 9.56,0 15.51,7.594 6,7.594 6,19.969 0,12.375 -6,19.969 -5.95,7.594 -15.51,7.594 -5.77,0 -9.94,-2.251 -4.13,-2.296 -6.84,-6.984 v 7.875 h -8.68 v -72.938 h 8.68 z m -64.93,-0.961 -9.629,26.121 h 19.299 z m -4.004,-6.996 h 8.054 l 20,52.488 h -7.38 l -4.78,-13.465 h -23.664 l -4.781,13.465 h -7.488 z"/></svg>