<svg xmlns="http://www.w3.org/2000/svg" xmlns:xlink="http://www.w3.org/1999/xlink" width="600" height="300" viewBox="0 0 600 300"><style>text{font-size:72px;text-anchor:middle}path{fill:none;stroke:#add8e6}.en{font-family:&quot;DejaVu Sans&quot;}.ar{font-family:&quot;PakType Naqsh&quot;}</style><path id="path1" d="m 20.1,150 a 150,150 0 0 1 129.9,-75 150,150 0 0 1 129.9,75"/><path id="path2" d="m 320.1,150 a 150,150 0 0 1 129.9,-75 150,150 0 0 1 129.9,75"/><path id="path3" d="m 20.1,275 a 150,150 0 0 1 129.9,-75 150,150 0 0 1 129.9,75"/><path id="path4" d="m 320.1,275 a 150,150 0 0 1 129.9,-75 150,150 0 0 1 129.9,75"/><text class="en"><textPath startOffset="50%" xlink:href="#path1">Office</textPath></text><text class="en"><textPath method="stretch" startOffset="50%" xlink:href="#path2">Office</textPath></text><text class="ar"><textPath startOffset="50%" xlink:href="#path3">اصبر تنل</textPath></text><text class="ar"><textPath method="stretch" startOffset="50%" xlink:href="#path4">اصبر تنل</textPath></text></svg>