<svg xmlns="http://www.w3.org/2000/svg" width="5cm" height="5cm" viewBox="-50 -50 500 500"><rect width="500" height="500" x="-50" y="-50" fill="none" stroke="orange" stroke-width="3"/><g id="base" transform="matrix(2.1169438081370817,0.3576047954311102,-0.3576047954311102,1.4700998667618626,0,0)"><g fill="none" stroke="green" stroke-width="1"><circle cx="0" cy="0" r="10"/><circle cx="150" cy="150" r="7"/><path fill="green" stroke="none" d="M0,-3 L30,-3 25,-10 50,0 25,10 30,3 0,3z"/><line x1="-100" x2="600" y1="-100" y2="-100" stroke-dasharray="5 5"/><line x1="-100" x2="600" y1="0" y2="0"/><line x1="-100" x2="600" y1="100" y2="100" stroke-dasharray="5 5"/><line x1="-100" x2="600" y1="200" y2="200" stroke-dasharray="5 5"/><line x1="-100" x2="600" y1="300" y2="300" stroke-dasharray="5 5"/><line x1="-100" x2="600" y1="400" y2="400" stroke-dasharray="5 5"/><line x1="-100" x2="600" y1="500" y2="500" stroke-dasharray="5 5"/><line x1="-100" x2="-100" y1="-100" y2="600" stroke-dasharray="5 5"/><line x1="0" x2="0" y1="-100" y2="600"/><line x1="100" x2="100" y1="-100" y2="600" stroke-dasharray="5 5"/><line x1="200" x2="200" y1="-100" y2="600" stroke-dasharray="5 5"/><line x1="300" x2="300" y1="-100" y2="600" stroke-dasharray="5 5"/><line x1="400" x2="400" y1="-100" y2="600" stroke-dasharray="5 5"/><line x1="500" x2="500" y1="-100" y2="600" stroke-dasharray="5 5"/></g><path id="ve" fill="none" stroke="red" stroke-width="3" d="M-50,-50 L50,-50 50,-100 150,0 50,100 50,50 -50,50 -50,-50z M5 0 L0 -5 -5 0 0 5z" transform="matrix(1,0,0,1,84.615956583008,81.45088021786906)"/></g></svg>