<svg xmlns="http://www.w3.org/2000/svg" xmlns:xlink="http://www.w3.org/1999/xlink" width="600" height="300"><defs><marker id="Arrow2Mend" orient="auto" refX="0" refY="0" style="overflow:visible"><path id="path3845" d="M 8.7185878,4.0337352 -2.2072895,0.01601326 8.7185884,-4.0017078 c -1.7454984,2.3720609 -1.7354408,5.6174519 -6e-7,8.035443 z" transform="scale(-0.6,-0.6)" style="fill-rule:evenodd;stroke-width:.625;stroke-linejoin:round"/></marker><linearGradient id="gradientVector"><stop style="stop-color:#a080ff" offset="0"/><stop style="stop-color:#f5d5bd" offset=".4"/><stop style="stop-color:#b2efdc" offset="1"/></linearGradient><linearGradient id="linearGradient" x1="50" x2="250" y1="150" y2="150" gradientUnits="userSpaceOnUse" xlink:href="#gradientVector"/><radialGradient id="radialGradient" cx="450" cy="150" r="80" fx="450" fy="150" gradientTransform="matrix(1.25,0,0,1.25,-112.5,-40)" gradientUnits="userSpaceOnUse" xlink:href="#gradientVector"/></defs><rect width="200" height="200" x="50" y="50" style="fill:url(#linearGradient)"/><path id="path6089" d="m 130,150 c 0,66.66667 0,53.33333 0,120" style="fill:none;stroke:#000;stroke-width:2;marker-end:url(#Arrow2Mend)"/><text id="text6091" x="170" y="200" xml:space="preserve" style="font-size:20px;letter-spacing:0;word-spacing:0;text-anchor:middle;fill:#000;font-family:Nimbus Roman No9 L;-inkscape-font-specification:Nimbus Roman No9 L"><tspan id="tspan6093" x="170" y="200">Normal</tspan></text><text id="text6095" x="190" y="140" xml:space="preserve" style="font-size:20px;letter-spacing:0;word-spacing:0;text-anchor:middle;fill:#000;font-family:Nimbus Roman No9 L;-inkscape-font-specification:Nimbus Roman No9 L"><tspan id="tspan6097" x="190" y="140">Vector</tspan></text><path id="path7115" d="m 50,150 220,0" style="fill:none;stroke:#000;stroke-width:2;marker-end:url(#Arrow2Mend)"/><path id="path6103" d="m 104,250 a 4,4 0 1 1 -8,0 4,4 0 1 1 8,0 z" transform="translate(-50,-100)" style="fill:#a282fd;stroke:#000;stroke-width:2"/><path id="path6101" d="m 104,80 a 4,4 0 1 1 -8,0 4,4 0 1 1 8,0 z" transform="translate(30,70)" style="fill:#f5d5bd;stroke:#000;stroke-width:2"/><path id="path6099" d="m 104,50 a 4,4 0 1 1 -8,0 4,4 0 1 1 8,0 z" transform="translate(150,100)" style="fill:#b2efdc;stroke:#000;stroke-width:2"/><rect id="rect7325" width="200" height="200" x="350" y="50" style="fill:url(#radialGradient)"/><text id="text7333" x="520" y="140" xml:space="preserve" style="font-size:20px;text-anchor:middle;fill:#000;font-family:Nimbus Roman No9 L"><tspan id="tspan7335" x="520" y="140">Vector</tspan></text><path id="path7337" d="m 450,150 120,0" style="fill:none;stroke:#000;stroke-width:2;marker-end:url(#Arrow2Mend)"/><path id="path7339" d="m 104,250 a 4,4 0 1 1 -8,0 4,4 0 1 1 8,0 z" transform="translate(350,-100)" style="fill:#a282fd;stroke:#000;stroke-width:2"/><path id="path7343" d="m 104,50 a 4,4 0 1 1 -8,0 4,4 0 1 1 8,0 z" transform="translate(450,100)" style="fill:#b2efdc;stroke:#000;stroke-width:2"/><path style="fill:none;stroke:#000;stroke-width:2" id="path8298" d="m 490,150 a 40,40 0 1 1 -80,0 40,40 0 1 1 80,0 z"/><path id="path7341" d="m 104,80 a 4,4 0 1 1 -8,0 4,4 0 1 1 8,0 z" transform="translate(390,70)" style="fill:#f5d5bd;stroke:#000;stroke-width:2"/><text id="text4888" x="400" y="110" xml:space="preserve" style="font-size:20px;text-anchor:middle;font-family:Nimbus Roman No9 L"><tspan id="tspan4890" x="400" y="110">Normal</tspan></text></svg>