<svg xmlns="http://www.w3.org/2000/svg" width="300" height="300"><defs><mesh id="example" x="50" y="50" gradientUnits="userSpaceOnUse"><meshrow><meshpatch><stop path="c 25,-25 75, 25 100,0" stop-color="#add8e6"/><stop path="c 25, 25 -25, 75 0,100" stop-color="purple"/><stop path="c -25, 25 -75,-25 -100,0" stop-color="red"/><stop path="c -25,-25, 25,-75" stop-color="purple"/></meshpatch><meshpatch><stop path="c 25,-25 75, 25 100,0"/><stop path="c 25, 25 -25, 75 0,100" stop-color="#add8e6"/><stop path="c -25, 25 -75,-25" stop-color="purple"/></meshpatch></meshrow><meshrow><meshpatch><stop path="c 25, 25 -25, 75 0,100"/><stop path="c -25, 25 -75,-25 -100,0" stop-color="purple"/><stop path="c -25,-25, 25,-75" stop-color="#add8e6"/></meshpatch><meshpatch><stop path="c 25, 25 -25, 75 0,100"/><stop path="c -25, 25 -75,-25" stop-color="#add8e6"/></meshpatch></meshrow></mesh><marker id="Arrow" orient="auto" refX="0" refY="0" style="overflow:visible"><path d="m 0,0 -5,-5 12.5,5 -12.5,5 z"/></marker></defs><rect width="300" height="300" x="0" y="0" style="fill:url(#example)"/><g style="fill:none;stroke:#000;marker-end:url(#Arrow)"><path d="m 80,70 40,0 c 5.54,0 10,4.46 10,10 l 0,40 c 0,5.54 -4.46,10 -10,10 l -40,0 c -5.54,0 -10,-4.46 -10,-10 l 0,-40"/><path d="m 180,70 40,0 c 5.54,0 10,4.46 10,10 l 0,40 c 0,5.54 -4.46,10 -10,10 l -40,0"/><path d="m 130,180 0,40 c 0,5.54 -4.46,10 -10,10 l -40,0 c -5.54,0 -10,-4.46 -10,-10 l 0,-40"/><path d="m 230,180 0,40 c 0,5.54 -4.46,10 -10,10 l -40,0"/></g></svg>