<svg xmlns="http://www.w3.org/2000/svg" xmlns:xlink="http://www.w3.org/1999/xlink" width="600" height="400" version="1.1"><defs>&gt;<marker id="Arrow2Mend" orient="auto" refX="0" refY="0" style="overflow:visible"><path id="path3812" d="M 8.7185878,4.0337352 -2.2072895,0.01601326 8.7185884,-4.0017078 c -1.7454984,2.3720609 -1.7354408,5.6174519 -6e-7,8.035443 z" transform="scale(-0.6,-0.6)" style="fill-rule:evenodd;stroke-width:.625;stroke-linejoin:round"/></marker><linearGradient id="linearGradient8358"><stop style="stop-color:#bfe" offset="0"/><stop style="stop-color:#bfe" offset=".5"/><stop style="stop-color:#fdc" offset=".8"/><stop style="stop-color:#a8f" offset="1"/></linearGradient><radialGradient id="radialGradient" cx="300" cy="200" r="150" fx="400" fy="200" gradientUnits="userSpaceOnUse" xlink:href="#linearGradient8358"/></defs><g id="layer1"><rect id="GradientRect" width="300" height="300" x="150" y="50" style="fill:url(#radialGradient);stroke:#000;stroke-width:2"/><path id="Focus-Circle" d="m 425,200 a 75,75 0 1 1 -150,0 75,75 0 1 1 150,0 z" style="fill:none;stroke:#000;stroke-width:2"/><path id="Outer-Circle" d="m 450,200 a 150,150 0 1 1 -300,0 150,150 0 1 1 300,0 z" style="fill:none;stroke:#000;stroke-width:2"/><path id="Center" d="m 305,200 a 5,5 0 1 1 -10,0 5,5 0 1 1 10,0 z" style="fill:none;stroke:#000;stroke-width:2"/><path id="X1" d="m 345,195 10,10" style="fill:none;stroke:#000;stroke-width:2"/><path id="X2" d="m 355,195 -10,10" style="fill:none;stroke:#000;stroke-width:2"/><path id="Arrow-fr" d="m 350,200 33.63081,-63" style="fill:none;stroke:#000;stroke-width:2;marker-end:url(#Arrow2Mend)"/><path id="Arrow-r" d="M 300,200 403.47278,303.40637" style="fill:none;stroke:#000;stroke-width:2;marker-end:url(#Arrow2Mend)"/><text id="text_r" x="330" y="260" xml:space="preserve" style="font-size:20px;text-anchor:middle;fill:#000;font-family:Nimbus Roman No9 L"><tspan id="tspan4462" x="330" y="260">&apos;r&apos;</tspan></text><text id="text_fr" x="385" y="175" xml:space="preserve" style="font-size:20px;text-anchor:middle;fill:#000;font-family:Nimbus Roman No9 L"><tspan id="tspan4466" x="385" y="175">&apos;fr&apos;</tspan></text><path id="Vector-Arrow2" d="M 350,125 301.46082,52.664011" style="fill:none;stroke:#000;stroke-width:2;stroke-dasharray:3,1;marker-end:url(#Arrow2Mend)"/><text id="text_Vectors" x="280" y="105" xml:space="preserve" style="font-size:20px;text-anchor:middle;fill:#000;font-family:Nimbus Roman No9 L"><tspan id="tspan4480" x="280" y="105">Vectors</tspan></text><path id="Vector-Arrow1" d="M 296.66401,146.66401 196.85923,95.398406" style="fill:none;stroke:#000;stroke-width:2;stroke-dasharray:3,1;marker-end:url(#Arrow2Mend)"/></g></svg>