<svg xmlns="http://www.w3.org/2000/svg" xmlns:xlink="http://www.w3.org/1999/xlink" width="12cm" height="4cm" version="1.1" viewBox="0 0 1200 400"><desc>Example fillrule-evenodd - demonstrates fill-rule:evenodd</desc><defs><path id="Triangle" fill="#000" stroke="none" d="M 16,0 L -8,9 v-18 z"/></defs><g fill="red" fill-rule="evenodd" stroke="#000" stroke-width="3"><path d="M 250,75 L 323,301 131,161 369,161 177,301 z"/><use overflow="visible" transform="translate(306.21 249) rotate(72)" xlink:href="#Triangle"/><use overflow="visible" transform="translate(175.16,193.2) rotate(216)" xlink:href="#Triangle"/><use overflow="visible" transform="translate(314.26,161) rotate(0)" xlink:href="#Triangle"/><use overflow="visible" transform="translate(221.16,268.8) rotate(144)" xlink:href="#Triangle"/><use overflow="visible" transform="translate(233.21,126.98) rotate(288)" xlink:href="#Triangle"/><path d="M 600,81 A 107,107 0 0,1 600,295 A 107,107 0 0,1 600,81 z M 600,139 A 49,49 0 0,1 600,237 A 49,49 0 0,1 600,139 z"/><use overflow="visible" transform="translate(600,188) rotate(0) translate(107,0) rotate(90)" xlink:href="#Triangle"/><use overflow="visible" transform="translate(600,188) rotate(120) translate(107,0) rotate(90)" xlink:href="#Triangle"/><use overflow="visible" transform="translate(600,188) rotate(240) translate(107,0) rotate(90)" xlink:href="#Triangle"/><use overflow="visible" transform="translate(600,188) rotate(60) translate(49,0) rotate(90)" xlink:href="#Triangle"/><use overflow="visible" transform="translate(600,188) rotate(180) translate(49,0) rotate(90)" xlink:href="#Triangle"/><use overflow="visible" transform="translate(600,188) rotate(300) translate(49,0) rotate(90)" xlink:href="#Triangle"/><path d="M 950,81 A 107,107 0 0,1 950,295 A 107,107 0 0,1 950,81 z M 950,139 A 49,49 0 0,0 950,237 A 49,49 0 0,0 950,139 z"/><use overflow="visible" transform="translate(950,188) rotate(0) translate(107,0) rotate(90)" xlink:href="#Triangle"/><use overflow="visible" transform="translate(950,188) rotate(120) translate(107,0) rotate(90)" xlink:href="#Triangle"/><use overflow="visible" transform="translate(950,188) rotate(240) translate(107,0) rotate(90)" xlink:href="#Triangle"/><use overflow="visible" transform="translate(950,188) rotate(60) translate(49,0) rotate(-90)" xlink:href="#Triangle"/><use overflow="visible" transform="translate(950,188) rotate(180) translate(49,0) rotate(-90)" xlink:href="#Triangle"/><use overflow="visible" transform="translate(950,188) rotate(300) translate(49,0) rotate(-90)" xlink:href="#Triangle"/></g></svg>