<svg xmlns="http://www.w3.org/2000/svg" xmlns:xlink="http://www.w3.org/1999/xlink" width="500" height="200"><defs><g id="dot"><rect width="6" height="6" x="-3" y="-3" fill="#fff"/><rect width="4" height="4" x="-2" y="-2" fill="#000"/></g></defs><g transform="translate(100,0)"><g stroke="#444" stroke-width="40"><path d="M 50,150 L 150,50"/><path d="M 150,50 L 250,150"/></g><path fill="#ff1493" d="M 135.86,35.86 L 150,50 164.14,35.86 A 20,20 0 0 0 135.86,35.86"/><g fill="none" stroke="#6a9100" stroke-dasharray="4"><path d="M -50,250 L 200,0" transform="translate(-14.14, -14.14)"/><path d="M -50,250 L 250,-50" transform="translate(14.14, 14.14)"/><path d="M 50,-50 350,250" transform="translate(-14.14, 14.14)"/><path d="M 50,-50 350,250" transform="translate(14.14, -14.14)"/></g><path fill="none" stroke="#ccc" stroke-width="2" d="M 50,150 L 150,50 250,150"/><use x="150" y="50" xlink:href="#dot"/><use x="135.86" y="35.86" xlink:href="#dot"/><use x="164.14" y="35.86" xlink:href="#dot"/><use x="150" y="21.72" xlink:href="#dot"/><g font-family="sans-serif" font-size="12"><text x="150" y="67" fill="#ccc" text-anchor="middle">P</text><text x="130" y="37" fill="#444" text-anchor="end">P1</text><text x="170" y="37" fill="#444">P2</text><text x="150" y="13" fill="#444" text-anchor="middle">P3</text><text x="-30" y="193" text-anchor="end">A<tspan dy="2" font-size="10">left</tspan></text><text x="52" y="193">A<tspan dy="2" font-size="10">right</tspan></text><text x="223" y="193">B<tspan dy="2" font-size="10">right</tspan></text><text x="352" y="193" text-anchor="end">B<tspan dy="2" font-size="10">left</tspan></text></g></g></svg>