<svg xmlns="http://www.w3.org/2000/svg" xmlns:xlink="http://www.w3.org/1999/xlink" width="950" height="330"><mask id="m1" width="120" height="120" x="-60" y="-60" maskContentUnits="userSpaceOnUse" maskUnits="userSpaceOnUse"><rect width="120" height="120" x="-60" y="-60" fill="#fff"/><circle r="10"/></mask><mask id="m2" width="120" height="120" x="-60" y="-60" maskContentUnits="userSpaceOnUse" maskUnits="userSpaceOnUse"><rect width="120" height="120" x="-60" y="-60" fill="#fff"/><circle r="5"/></mask><mask id="m3" width="120" height="120" x="-60" y="-60" maskContentUnits="userSpaceOnUse" maskUnits="userSpaceOnUse"><rect width="120" height="120" x="-60" y="-60" fill="#fff"/><rect width="20" height="20" x="-10" y="-10"/></mask><mask id="m4" width="120" height="120" x="-60" y="-60" maskContentUnits="userSpaceOnUse" maskUnits="userSpaceOnUse"><rect width="120" height="120" x="-60" y="-60" fill="#fff"/><rect width="10" height="10" x="-5" y="-5"/></mask><mask id="m5" width="120" height="120" x="-60" y="-60" maskContentUnits="userSpaceOnUse" maskUnits="userSpaceOnUse"><rect width="120" height="120" x="-60" y="-60" fill="#fff"/><path d="M 0,-8 l -8,8 8,8 8,-8 z"/></mask><mask id="m6" width="120" height="120" x="-60" y="-60" maskContentUnits="userSpaceOnUse" maskUnits="userSpaceOnUse"><rect width="120" height="120" x="-60" y="-60" fill="#fff"/><path d="M 0,-4 l -4,4 4,4 4,-4 z"/></mask><mask id="m7" width="120" height="120" x="-60" y="-60" maskContentUnits="userSpaceOnUse" maskUnits="userSpaceOnUse"><rect width="120" height="120" x="-60" y="-60" fill="#fff"/><circle cx="-10" r="10"/><rect width="20" height="16" x="-10" y="-8"/><circle cx="10" r="10"/></mask><mask id="m8" width="120" height="120" x="-60" y="-60" maskContentUnits="userSpaceOnUse" maskUnits="userSpaceOnUse"><rect width="120" height="120" x="-60" y="-60" fill="#fff"/><rect width="20" height="16" x="-10" y="-8"/><circle cx="-10" r="5"/><circle cx="10" r="5"/></mask><mask id="m9" width="120" height="120" x="-60" y="-60" maskContentUnits="userSpaceOnUse" maskUnits="userSpaceOnUse"><rect width="120" height="120" x="-60" y="-60" fill="#fff"/><rect width="40" height="20" x="-20" y="-10"/></mask><mask id="m10" width="120" height="120" x="-60" y="-60" maskContentUnits="userSpaceOnUse" maskUnits="userSpaceOnUse"><rect width="120" height="120" x="-60" y="-60" fill="#fff"/><rect width="30" height="10" x="-15" y="-5"/><rect width="20" height="16" x="-10" y="-8"/></mask><mask id="m11" width="120" height="120" x="-60" y="-60" maskContentUnits="userSpaceOnUse" maskUnits="userSpaceOnUse"><rect width="120" height="120" x="-60" y="-60" fill="#fff"/><path d="M -10,-8 l -8,8 8,8 z M 10,-8 l 8,8 -8,8 z"/><rect width="20" height="16" x="-10" y="-8"/></mask><mask id="m12" width="120" height="120" x="-60" y="-60" maskContentUnits="userSpaceOnUse" maskUnits="userSpaceOnUse"><rect width="120" height="120" x="-60" y="-60" fill="#fff"/><path d="M -10,-4 l -4,4 4,4 z M 10,-4 l 4,4 -4,4 z"/><rect width="20" height="16" x="-10" y="-8"/></mask><mask id="m13" width="120" height="120" x="-60" y="-60" maskContentUnits="userSpaceOnUse" maskUnits="userSpaceOnUse"><rect width="120" height="120" x="-60" y="-60" fill="#fff"/><rect width="40" height="16" x="-20" y="-8"/><circle cx="-18" r="10" fill="#fff"/><circle cx="18" r="10" fill="#fff"/></mask><mask id="m14" width="120" height="120" x="-60" y="-60" maskContentUnits="userSpaceOnUse" maskUnits="userSpaceOnUse"><rect width="120" height="120" x="-60" y="-60" fill="#fff"/><rect width="20" height="16" x="-10" y="-8"/><rect width="5" height="16" x="-15" y="-8"/><circle cx="-15" r="5" fill="#fff"/><rect width="5" height="16" x="-20" y="-8" fill="#fff"/><rect width="5" height="16" x="5" y="-8"/><circle cx="10" r="5" fill="#fff"/><rect width="5" height="16" x="10" y="-8" fill="#fff"/></mask><mask id="m15" width="120" height="120" x="-60" y="-60" maskContentUnits="userSpaceOnUse" maskUnits="userSpaceOnUse"><rect width="120" height="120" x="-60" y="-60" fill="#fff"/><rect width="20" height="20" x="-10" y="-10"/></mask><mask id="m16" width="120" height="120" x="-60" y="-60" maskContentUnits="userSpaceOnUse" maskUnits="userSpaceOnUse"><rect width="120" height="120" x="-60" y="-60" fill="#fff"/><rect width="30" height="3" x="-15" y="-8"/><rect width="30" height="3" x="-15" y="5"/><rect width="20" height="16" x="-10" y="-8"/></mask><mask id="m17" width="120" height="120" x="-60" y="-60" maskContentUnits="userSpaceOnUse" maskUnits="userSpaceOnUse"><rect width="120" height="120" x="-60" y="-60" fill="#fff"/><rect width="36" height="16" x="-18" y="-8"/><path fill="#fff" d="M -18,-8 l 8,8 -8,8 z M 18,-8 l -8,8 8,8 z"/></mask><mask id="m18" width="120" height="120" x="-60" y="-60" maskContentUnits="userSpaceOnUse" maskUnits="userSpaceOnUse"><rect width="120" height="120" x="-60" y="-60" fill="#fff"/><rect width="28" height="16" x="-14" y="-8"/><path fill="#fff" d="M -14,-4 l 4,4 -4,4 z M 14,-4 l -4,4 4,4 z"/></mask><defs><path id="p" stroke-width="16" d="M -50,0 h 100"/></defs><g font-family="sans-serif" font-size="12" text-anchor="middle"><g transform="translate(100,50)"><use stroke="#ff1493" mask="url(#m1)" xlink:href="#p"/><text y="32">10px circle</text></g><g transform="translate(250,50)"><use stroke="#ff1493" mask="url(#m2)" xlink:href="#p"/><text y="32">5px circle</text></g><g transform="translate(400,50)"><use stroke="#ff1493" mask="url(#m3)" xlink:href="#p"/><text y="32">10px rectangle</text></g><g transform="translate(550,50)"><use stroke="#ff1493" mask="url(#m4)" xlink:href="#p"/><text y="32">5px 10px rectangle</text></g><g transform="translate(700,50)"><use stroke="#ff1493" mask="url(#m5)" xlink:href="#p"/><text y="32">8px triangle</text></g><g transform="translate(850,50)"><use stroke="#ff1493" mask="url(#m6)" xlink:href="#p"/><text y="32">4px 8px triangle</text></g><g transform="translate(100,150)"><use stroke="#ff1493" mask="url(#m7)" xlink:href="#p"/><text y="32">10px circle</text><text y="48">at 10px</text></g><g transform="translate(250,150)"><use stroke="#ff1493" mask="url(#m8)" xlink:href="#p"/><text y="32">5px circle</text><text y="48">at 10px</text></g><g transform="translate(400,150)"><use stroke="#ff1493" mask="url(#m9)" xlink:href="#p"/><text y="32">10px rectangle</text><text y="48">at 10px</text></g><g transform="translate(550,150)"><use stroke="#ff1493" mask="url(#m10)" xlink:href="#p"/><text y="32">5px 10px rectangle</text><text y="48">at 10px</text></g><g transform="translate(700,150)"><use stroke="#ff1493" mask="url(#m11)" xlink:href="#p"/><text y="32">8px triangle</text><text y="48">at 10px</text></g><g transform="translate(850,150)"><use stroke="#ff1493" mask="url(#m12)" xlink:href="#p"/><text y="32">4px 8px triangle</text><text y="48">at 10px</text></g><g transform="translate(100,250)"><use stroke="#ff1493" mask="url(#m13)" xlink:href="#p"/><text y="32">10px inverted circle</text><text y="48">at 10px</text></g><g transform="translate(250,250)"><use stroke="#ff1493" mask="url(#m14)" xlink:href="#p"/><text y="32">5px inverted circle</text><text y="48">at 10px</text></g><g transform="translate(400,250)"><use stroke="#ff1493" mask="url(#m15)" xlink:href="#p"/><text y="32">10px inverted rectangle</text><text y="48">at 10px</text></g><g transform="translate(550,250)"><use stroke="#ff1493" mask="url(#m16)" xlink:href="#p"/><text y="32">5px 10px inverted rectangle</text><text y="48">at 10px</text></g><g transform="translate(700,250)"><use stroke="#ff1493" mask="url(#m17)" xlink:href="#p"/><text y="32">8px inverted triangle</text><text y="48">at 10px</text></g><g transform="translate(850,250)"><use stroke="#ff1493" mask="url(#m18)" xlink:href="#p"/><text y="32">4px 8px inverted triangle</text><text y="48">at 10px</text></g></g></svg>