<svg xmlns="http://www.w3.org/2000/svg" xmlns:xlink="http://www.w3.org/1999/xlink" width="400" height="200"><defs><marker id="m1" markerHeight="8" markerUnits="userSpaceOnUse" markerWidth="8" refX="4" refY="4"><circle cx="4" cy="4" r="3" fill="#ff1493"/></marker><g id="m2"><path fill="none" stroke="#fff" stroke-width="4" d="M -4,-4 L 4,4 M -4,4 L 4,-4"/><path fill="none" stroke="#000" stroke-width="2" d="M -4,-4 L 4,4 M -4,4 L 4,-4"/></g></defs><path stroke="#888" d="M 40,20 360,20 M 40,40 360,40 M 40,60 360,60 M 40,80 360,80 M 40,100 360,100 M 40,120 360,120 M 40,140 360,140 M 40,160 360,160 M 40,180 360,180"/><polyline fill="none" stroke="#ff1493" stroke-width="2" points="50 100 100 20 150 50 200 130 250 80 300 170 350 100" style="marker:url(#m1)"/><use x="75" y="60" xlink:href="#m2"/><use x="125" y="35" xlink:href="#m2"/><use x="175" y="90" xlink:href="#m2"/><use x="225" y="105" xlink:href="#m2"/><use x="275" y="125" xlink:href="#m2"/><use x="325" y="135" xlink:href="#m2"/></svg>