<svg xmlns="http://www.w3.org/2000/svg" width="450" height="325" version="1.1" viewBox="0 0 450 325"><title>Example feTurbulence - Examples of feTurbulence operations</title><desc>Six rectangular areas showing the effects of various parameter settings for feTurbulence.</desc><g font-family="Verdana" font-size="10" text-anchor="middle"><defs><filter id="Turb1" width="100%" height="100%" x="0%" y="0%" filterUnits="objectBoundingBox"><feTurbulence baseFrequency=".05" numOctaves="2" type="turbulence"/></filter><filter id="Turb2" width="100%" height="100%" x="0%" y="0%" filterUnits="objectBoundingBox"><feTurbulence baseFrequency=".1" numOctaves="2" type="turbulence"/></filter><filter id="Turb3" width="100%" height="100%" x="0%" y="0%" filterUnits="objectBoundingBox"><feTurbulence baseFrequency=".05" numOctaves="8" type="turbulence"/></filter><filter id="Turb4" width="100%" height="100%" x="0%" y="0%" filterUnits="objectBoundingBox"><feTurbulence baseFrequency=".1" numOctaves="4" type="fractalNoise"/></filter><filter id="Turb5" width="100%" height="100%" x="0%" y="0%" filterUnits="objectBoundingBox"><feTurbulence baseFrequency=".4" numOctaves="4" type="fractalNoise"/></filter><filter id="Turb6" width="100%" height="100%" x="0%" y="0%" filterUnits="objectBoundingBox"><feTurbulence baseFrequency=".1" numOctaves="1" type="fractalNoise"/></filter></defs><rect width="448" height="323" x="1" y="1" fill="none" stroke="#00f" stroke-width="1"/><rect width="100" height="75" x="25" y="25" filter="url(#Turb1)"/><text x="75" y="117">type=turbulence</text><text x="75" y="129">baseFrequency=0.05</text><text x="75" y="141">numOctaves=2</text><rect width="100" height="75" x="175" y="25" filter="url(#Turb2)"/><text x="225" y="117">type=turbulence</text><text x="225" y="129">baseFrequency=0.1</text><text x="225" y="141">numOctaves=2</text><rect width="100" height="75" x="325" y="25" filter="url(#Turb3)"/><text x="375" y="117">type=turbulence</text><text x="375" y="129">baseFrequency=0.05</text><text x="375" y="141">numOctaves=8</text><rect width="100" height="75" x="25" y="180" filter="url(#Turb4)"/><text x="75" y="272">type=fractalNoise</text><text x="75" y="284">baseFrequency=0.1</text><text x="75" y="296">numOctaves=4</text><rect width="100" height="75" x="175" y="180" filter="url(#Turb5)"/><text x="225" y="272">type=fractalNoise</text><text x="225" y="284">baseFrequency=0.4</text><text x="225" y="296">numOctaves=4</text><rect width="100" height="75" x="325" y="180" filter="url(#Turb6)"/><text x="375" y="272">type=fractalNoise</text><text x="375" y="284">baseFrequency=0.1</text><text x="375" y="296">numOctaves=1</text></g></svg>